<svg width="32" height="28" viewBox="0 0 32 28" fill="none" xmlns="http://www.w3.org/2000/svg">
<path fill-rule="evenodd" clip-rule="evenodd" d="M15.0331 1.60512C18.4989 1.46901 22.08 -1.09868 25.1289 0.55087C28.2022 2.21369 28.726 6.30615 29.8348 9.61346C30.9543 12.9524 32.8533 16.4895 31.5724 19.7703C30.3047 23.0175 26.6362 24.5347 23.4507 25.966C20.8 27.157 17.9346 27.019 15.0331 27.2017C11.8863 27.3998 8.32534 28.9682 5.80632 27.0768C3.28701 25.1852 4.11515 21.2556 3.13328 18.2667C2.14776 15.2668 -0.386431 12.6814 0.0500635 9.55472C0.516138 6.21613 2.51514 2.90481 5.49884 1.32173C8.37629 -0.204968 11.7764 1.73301 15.0331 1.60512Z" fill="url(#paint0_linear)"/>
<circle cx="16" cy="12" r="3" stroke="white" stroke-width="2" strokeLinecap="round"/>
<circle cx="16" cy="14" r="9" stroke="white" stroke-width="2"/>
<path d="M21.7805 20.8264C21.9076 20.7566 21.9678 20.6055 21.914 20.4708C21.5284 19.5045 20.7856 18.6534 19.7814 18.0332C18.6966 17.3632 17.3674 17 16 17C14.6326 17 13.3034 17.3632 12.2186 18.0332C11.2144 18.6534 10.4716 19.5045 10.086 20.4708C10.0322 20.6055 10.0924 20.7566 10.2195 20.8264V20.8264C13.8197 22.803 18.1803 22.803 21.7805 20.8264V20.8264Z" fill="white"/>
<defs>
<linearGradient id="paint0_linear" x1="16" y1="0" x2="16" y2="28" gradientUnits="userSpaceOnUse">
<stop stop-color="#12B8FF"/>
<stop offset="1" stop-color="#0071D9"/>
</linearGradient>
</defs>
</svg>
