<svg width="40" height="36" viewBox="0 0 40 36" fill="none" xmlns="http://www.w3.org/2000/svg">
<g filter="url(#filter0_d)">
<path fill-rule="evenodd" clip-rule="evenodd" d="M19.0331 1.60512C22.4989 1.46901 26.08 -1.09868 29.1289 0.55087C32.2022 2.21369 32.726 6.30615 33.8348 9.61346C34.9543 12.9524 36.8533 16.4895 35.5724 19.7703C34.3047 23.0175 30.6362 24.5347 27.4507 25.966C24.8 27.157 21.9346 27.019 19.0331 27.2017C15.8863 27.3998 12.3253 28.9682 9.80632 27.0768C7.28701 25.1852 8.11515 21.2556 7.13328 18.2667C6.14776 15.2668 3.61357 12.6814 4.05006 9.55472C4.51614 6.21613 6.51514 2.90481 9.49884 1.32173C12.3763 -0.204968 15.7764 1.73301 19.0331 1.60512Z" fill="url(#paint0_linear)"/>
<path d="M21.1716 5H17C15.1144 5 14.1716 5 13.5858 5.58579C13 6.17157 13 7.11438 13 9V19C13 20.8856 13 21.8284 13.5858 22.4142C14.1716 23 15.1144 23 17 23H23C24.8856 23 25.8284 23 26.4142 22.4142C27 21.8284 27 20.8856 27 19V10.8284C27 10.4197 27 10.2153 26.9239 10.0315C26.8478 9.84776 26.7032 9.70324 26.4142 9.41421L22.5858 5.58579C22.2968 5.29676 22.1522 5.15224 21.9685 5.07612C21.7847 5 21.5803 5 21.1716 5Z" stroke="white" stroke-width="2"/>
<path d="M17 15L23 15" stroke="white" stroke-width="2" strokeLineCap="round"/>
<path d="M17 19L21 19" stroke="white" stroke-width="2" strokeLineCap="round"/>
<path d="M21 5V9C21 9.94281 21 10.4142 21.2929 10.7071C21.5858 11 22.0572 11 23 11H27" stroke="white" stroke-width="2"/>
</g>
<defs>
<filter id="filter0_d" x="0" y="0" width="40" height="36" filterUnits="userSpaceOnUse" color-interpolation-filters="sRGB">
<feFlood flood-opacity="0" result="BackgroundImageFix"/>
<feColorMatrix in="SourceAlpha" type="matrix" values="0 0 0 0 0 0 0 0 0 0 0 0 0 0 0 0 0 0 127 0" result="hardAlpha"/>
<feOffset dy="4"/>
<feGaussianBlur stdDeviation="2"/>
<feComposite in2="hardAlpha" operator="out"/>
<feColorMatrix type="matrix" values="0 0 0 0 0 0 0 0 0 0 0 0 0 0 0 0 0 0 0.12 0"/>
<feBlend mode="normal" in2="BackgroundImageFix" result="effect1_dropShadow"/>
<feBlend mode="normal" in="SourceGraphic" in2="effect1_dropShadow" result="shape"/>
</filter>
<linearGradient id="paint0_linear" x1="20" y1="0" x2="20" y2="28" gradientUnits="userSpaceOnUse">
<stop stop-color="#12B8FF"/>
<stop offset="1" stop-color="#0071D9"/>
</linearGradient>
</defs>
</svg>
