<svg width="40" height="36" viewBox="0 0 40 36" fill="none" xmlns="http://www.w3.org/2000/svg">
<g filter="url(#filter0_d)">
<path fill-rule="evenodd" clip-rule="evenodd" d="M19.0331 1.60512C22.4989 1.46901 26.08 -1.09868 29.1289 0.55087C32.2022 2.21369 32.726 6.30615 33.8348 9.61346C34.9543 12.9524 36.8533 16.4895 35.5724 19.7703C34.3047 23.0175 30.6362 24.5347 27.4507 25.966C24.8 27.157 21.9346 27.019 19.0331 27.2017C15.8863 27.3998 12.3253 28.9682 9.80632 27.0768C7.28701 25.1852 8.11515 21.2556 7.13328 18.2667C6.14776 15.2668 3.61357 12.6814 4.05006 9.55472C4.51614 6.21613 6.51514 2.90481 9.49884 1.32173C12.3763 -0.204968 15.7764 1.73301 19.0331 1.60512Z" fill="url(#paint0_linear)"/>
<circle cx="20" cy="14" r="9.25" stroke="white" stroke-width="2" strokeLineCap="round"/>
<path d="M17.25 13.3333C17.8943 13.3333 18.4167 12.811 18.4167 12.1667C18.4167 11.5223 17.8943 11 17.25 11C16.6057 11 16.0833 11.5223 16.0833 12.1667C16.0833 12.811 16.6057 13.3333 17.25 13.3333Z" fill="white" stroke="white" stroke-width="0.5" strokeLineCap="round"/>
<circle cx="22.75" cy="12.1667" r="1.16667" fill="white" stroke="white" stroke-width="0.5" strokeLineCap="round"/>
<path fill-rule="evenodd" clip-rule="evenodd" d="M16.9588 16.75C16.6788 16.75 16.5388 16.75 16.4643 16.8585C16.3898 16.967 16.4347 17.0836 16.5245 17.3168C17.0133 18.586 18.3847 19.5 20 19.5C21.6153 19.5 22.9867 18.586 23.4755 17.3168C23.5653 17.0836 23.6102 16.967 23.5357 16.8585C23.4612 16.75 23.3212 16.75 23.0412 16.75H16.9588Z" fill="white"/>
</g>
<defs>
<filter id="filter0_d" x="0" y="0" width="40" height="36" filterUnits="userSpaceOnUse" color-interpolation-filters="sRGB">
<feFlood flood-opacity="0" result="BackgroundImageFix"/>
<feColorMatrix in="SourceAlpha" type="matrix" values="0 0 0 0 0 0 0 0 0 0 0 0 0 0 0 0 0 0 127 0" result="hardAlpha"/>
<feOffset dy="4"/>
<feGaussianBlur stdDeviation="2"/>
<feComposite in2="hardAlpha" operator="out"/>
<feColorMatrix type="matrix" values="0 0 0 0 0 0 0 0 0 0 0 0 0 0 0 0 0 0 0.15 0"/>
<feBlend mode="normal" in2="BackgroundImageFix" result="effect1_dropShadow"/>
<feBlend mode="normal" in="SourceGraphic" in2="effect1_dropShadow" result="shape"/>
</filter>
<linearGradient id="paint0_linear" x1="20" y1="0" x2="20" y2="28" gradientUnits="userSpaceOnUse">
<stop stop-color="#12B8FF"/>
<stop offset="1" stop-color="#0071D9"/>
</linearGradient>
</defs>
</svg>
